<!--?xml version="1.0" standalone="no"?-->
              <svg id="sw-js-blob-svg" viewBox="0 0 100 100" xmlns="http://www.w3.org/2000/svg" version="1.1">
                    <defs> 
                        <linearGradient id="sw-gradient" x1="0" x2="1" y1="1" y2="0">
                            <stop id="stop1" stop-color="rgba(21.598, 255, 243.534, 1)" offset="0%"></stop>
                            <stop id="stop2" stop-color="rgba(251, 31, 188.267, 1)" offset="100%"></stop>
                        </linearGradient>
                    </defs>
                <path fill="url(#sw-gradient)" d="M25.7,-33.1C30.6,-26.6,29.9,-15.9,31.3,-5.8C32.8,4.3,36.3,13.7,33.8,21C31.3,28.3,22.7,33.6,14,35.5C5.3,37.4,-3.6,35.9,-12.2,33C-20.7,30.1,-28.9,25.7,-33.8,18.8C-38.7,11.8,-40.3,2.2,-38,-6C-35.7,-14.2,-29.5,-20.9,-22.5,-27.1C-15.5,-33.2,-7.7,-38.8,1.4,-40.4C10.4,-42,20.9,-39.7,25.7,-33.1Z" width="100%" height="100%" transform="translate(50 50)" stroke-width="0" style="transition: all 0.3s ease 0s;" stroke="url(#sw-gradient)"></path>
              </svg>